<svg width="32" height="32" viewBox="0 0 32 32" fill="none" xmlns="http://www.w3.org/2000/svg">
<path id="Vector" d="M20.4133 11.587C24.1475 15.325 24.0962 21.3181 20.4358 24.9988C20.4289 25.0063 20.4208 25.0145 20.4133 25.022L16.2133 29.222C12.5089 32.9263 6.48209 32.9258 2.77828 29.222C-0.926094 25.5182 -0.926094 19.4907 2.77828 15.787L5.09741 13.4678C5.71241 12.8528 6.77153 13.2616 6.80328 14.1307C6.84378 15.2383 7.04241 16.3512 7.40891 17.4258C7.53303 17.7897 7.44434 18.1922 7.17247 18.464L6.35453 19.282C4.60291 21.0336 4.54797 23.8857 6.28234 25.6545C8.03384 27.4407 10.9127 27.4513 12.6777 25.6863L16.8777 21.487C18.6396 19.725 18.6322 16.8772 16.8777 15.1226C16.6463 14.8917 16.4133 14.7123 16.2313 14.587C16.1026 14.4986 15.9963 14.3813 15.9209 14.2445C15.8455 14.1077 15.8031 13.9552 15.7972 13.7992C15.7724 13.1387 16.0064 12.4582 16.5283 11.9363L17.8442 10.6203C18.1892 10.2753 18.7305 10.2329 19.1307 10.5122C19.5889 10.8321 20.0181 11.1918 20.4133 11.587ZM29.2217 2.77809C25.5179 -0.925781 19.4911 -0.926281 15.7867 2.77809L11.5867 6.97809C11.5792 6.98559 11.5711 6.99372 11.5642 7.00122C7.90384 10.682 7.85253 16.675 11.5867 20.4131C11.9819 20.8083 12.4111 21.1679 12.8693 21.4878C13.2694 21.7671 13.8108 21.7247 14.1558 21.3797L15.4717 20.0637C15.9935 19.5418 16.2275 18.8613 16.2028 18.2008C16.1968 18.0448 16.1544 17.8923 16.079 17.7555C16.0037 17.6187 15.8973 17.5014 15.7686 17.413C15.5866 17.2877 15.3536 17.1083 15.1223 16.8774C13.3677 15.1228 13.3603 12.275 15.1223 10.513L19.3223 6.31366C21.0872 4.54872 23.966 4.55934 25.7176 6.34553C27.452 8.11428 27.3971 10.9664 25.6454 12.718L24.8275 13.536C24.5556 13.8078 24.4669 14.2103 24.591 14.5742C24.9575 15.6488 25.1562 16.7617 25.1967 17.8693C25.2285 18.7384 26.2875 19.1472 26.9025 18.5322L29.2217 16.213C32.9261 12.5093 32.9261 6.48184 29.2217 2.77809Z" fill="white"/>
</svg>
