<svg width="49" height="43" viewBox="0 0 49 43" fill="none" xmlns="http://www.w3.org/2000/svg">
<path id="Vector" d="M44.4062 0H32.1562C29.6201 0 27.5625 2.06362 27.5625 4.60714V16.8929C27.5625 19.4364 29.6201 21.5 32.1562 21.5H39.8125V27.6429C39.8125 31.031 37.0658 33.7857 33.6875 33.7857H32.9219C31.649 33.7857 30.625 34.8127 30.625 36.0893V40.6964C30.625 41.973 31.649 43 32.9219 43H33.6875C42.1477 43 49 36.1277 49 27.6429V4.60714C49 2.06362 46.9424 0 44.4062 0ZM16.8438 0H4.59375C2.05762 0 0 2.06362 0 4.60714V16.8929C0 19.4364 2.05762 21.5 4.59375 21.5H12.25V27.6429C12.25 31.031 9.50332 33.7857 6.125 33.7857H5.35938C4.08652 33.7857 3.0625 34.8127 3.0625 36.0893V40.6964C3.0625 41.973 4.08652 43 5.35938 43H6.125C14.5852 43 21.4375 36.1277 21.4375 27.6429V4.60714C21.4375 2.06362 19.3799 0 16.8438 0Z" fill="#FFE1C5"/>
</svg>
