<svg width="116" height="116" viewBox="0 0 116 116" fill="none" xmlns="http://www.w3.org/2000/svg">
<g id="rep">
<path id="Vector" d="M100.356 60.4582C102.259 57.9434 103.312 54.8621 103.312 51.6562C103.312 46.5699 100.469 41.7555 95.8926 39.0707C94.7144 38.3796 93.3729 38.0159 92.007 38.0172H64.8422L65.5219 24.0949C65.6805 20.7305 64.491 17.5359 62.1801 15.1004C61.046 13.8999 59.6777 12.9448 58.1599 12.294C56.6421 11.6432 55.0069 11.3107 53.3555 11.3168C47.4648 11.3168 42.2539 15.2816 40.6906 20.957L30.9598 56.1875H30.9258V104.672H84.4285C85.4707 104.672 86.4902 104.468 87.4305 104.06C92.8227 101.761 96.3004 96.493 96.3004 90.6477C96.3004 89.2203 96.0965 87.8156 95.6887 86.4562C97.5918 83.9414 98.6453 80.8602 98.6453 77.6543C98.6453 76.2269 98.4414 74.8223 98.0336 73.4629C99.9367 70.948 100.99 67.8668 100.99 64.6609C100.968 63.2336 100.764 61.8176 100.356 60.4582ZM12.6875 59.8125V101.047C12.6875 103.052 14.3074 104.672 16.3125 104.672H23.6758V56.1875H16.3125C14.3074 56.1875 12.6875 57.8074 12.6875 59.8125Z" fill="#632D0C"/>
</g>
</svg>

