<svg width="39" height="39" viewBox="0 0 39 39" fill="none" xmlns="http://www.w3.org/2000/svg">
<g id="Frame">
<rect width="39" height="39" rx="8" fill="#FFE1C5"/>
<path id="Vector" d="M19.5 5C16.6322 5 13.8287 5.85041 11.4442 7.44369C9.05972 9.03697 7.20122 11.3016 6.10375 13.9511C5.00628 16.6006 4.71913 19.5161 5.27862 22.3288C5.83811 25.1415 7.2191 27.7252 9.24696 29.753C11.2748 31.7809 13.8585 33.1619 16.6712 33.7214C19.4839 34.2809 22.3994 33.9937 25.0489 32.8962C27.6984 31.7988 29.963 29.9403 31.5563 27.5558C33.1496 25.1712 34 22.3678 34 19.5C34 15.6544 32.4723 11.9662 29.753 9.24695C27.0338 6.52767 23.3456 5 19.5 5ZM19.5 31.9286C17.0419 31.9286 14.6389 31.1996 12.5951 29.834C10.5512 28.4683 8.95819 26.5272 8.0175 24.2562C7.07681 21.9852 6.83069 19.4862 7.31025 17.0753C7.78981 14.6644 8.97351 12.4498 10.7117 10.7117C12.4498 8.9735 14.6644 7.7898 17.0753 7.31024C19.4862 6.83068 21.9852 7.07681 24.2562 8.0175C26.5272 8.95819 28.4683 10.5512 29.834 12.5951C31.1996 14.6389 31.9286 17.0419 31.9286 19.5C31.9286 22.7963 30.6191 25.9575 28.2883 28.2883C25.9575 30.6191 22.7963 31.9286 19.5 31.9286Z" fill="black"/>
<path id="Vector_2" d="M24.5 14C24.0055 14 23.5222 14.1759 23.1111 14.5056C22.7 14.8352 22.3795 15.3038 22.1903 15.8519C22.0011 16.4001 21.9516 17.0033 22.048 17.5853C22.1445 18.1672 22.3826 18.7018 22.7322 19.1213C23.0819 19.5409 23.5273 19.8266 24.0123 19.9424C24.4972 20.0581 24.9999 19.9987 25.4567 19.7716C25.9135 19.5446 26.304 19.1601 26.5787 18.6667C26.8534 18.1734 27 17.5933 27 17C27 16.2043 26.7366 15.4413 26.2678 14.8787C25.7989 14.3161 25.163 14 24.5 14Z" fill="black"/>
<path id="Vector_3" d="M11 16H17V18H11V16Z" fill="black"/>
<path id="Vector_4" d="M19.5 28C21.0114 27.9976 22.4963 27.6301 23.8106 26.9331C25.1248 26.2361 26.2235 25.2334 27 24.0225L25.1277 23C24.5434 23.9061 23.7182 24.6558 22.7321 25.1762C21.746 25.6966 20.6326 25.9701 19.5 25.9701C18.3674 25.9701 17.254 25.6966 16.2679 25.1762C15.2818 24.6558 14.4566 23.9061 13.8723 23L12 24.0225C12.7765 25.2334 13.8752 26.2361 15.1894 26.9331C16.5037 27.6301 17.9886 27.9976 19.5 28Z" fill="black"/>
</g>
</svg>
