<svg width="110" height="112" viewBox="0 0 110 112" fill="none" xmlns="http://www.w3.org/2000/svg">
<path id="steam-logo" d="M110 56C110 86.5039 85.3387 111.219 54.9113 111.219C29.6734 111.219 8.42742 94.2301 1.90726 71.0516L23.0202 79.8019C24.4395 86.9492 30.7601 92.3598 38.3004 92.3598C46.994 92.3598 54.246 85.1457 53.8689 75.9945L72.6089 62.5906C84.1633 62.8801 93.8548 53.484 93.8548 41.7723C93.8548 30.2832 84.5403 20.9539 73.0746 20.9539C61.6089 20.9539 52.2944 30.3055 52.2944 41.7723V42.0395L39.1653 61.1211C35.7278 60.9207 32.3569 61.8781 29.5181 63.8152L0 51.5691C2.2621 23.1359 25.9698 0.78125 54.9113 0.78125C85.3387 0.78125 110 25.4961 110 56ZM34.5302 84.5668L27.7661 81.7613C29.0091 84.3526 31.1553 86.3965 33.7984 87.5059C39.7641 89.9996 46.6169 87.1496 49.1008 81.1824C50.2984 78.2879 50.3206 75.1039 49.123 72.2094C47.9254 69.3148 45.6855 67.0438 42.8024 65.8414C39.9415 64.6391 36.881 64.6836 34.1754 65.7078L41.1613 68.6023C45.5524 70.4281 47.6371 75.4824 45.7964 79.891C43.9556 84.3219 38.9214 86.3926 34.5302 84.5668ZM73.0746 55.6437C65.4456 55.6437 59.2359 49.4094 59.2359 41.7723C59.2359 34.1352 65.4456 27.9008 73.0746 27.9008C80.7036 27.9008 86.9133 34.1352 86.9133 41.7723C86.9133 49.4094 80.7258 55.6437 73.0746 55.6437ZM73.0968 52.1703C78.8407 52.1703 83.498 47.4945 83.498 41.75C83.498 35.9832 78.8407 31.3297 73.0968 31.3297C67.3528 31.3297 62.6956 36.0055 62.6956 41.75C62.7177 47.4945 67.375 52.1703 73.0968 52.1703Z" fill="#632D0C"/>
</svg>
