<svg width="107" height="85" viewBox="0 0 107 85" fill="none" xmlns="http://www.w3.org/2000/svg">
<path id="Vector" d="M0 24.1094V20.7656C0 17.9955 2.24554 15.75 5.01562 15.75H80.25V5.71875C80.25 1.25338 85.6625 -0.977531 88.8123 2.17207L105.531 18.8908C107.49 20.8496 107.49 24.0254 105.531 25.984L88.8123 42.7027C85.6744 45.84 80.25 43.6402 80.25 39.1562V29.125H5.01562C2.24554 29.125 0 26.8795 0 24.1094ZM101.984 55.875H26.75V45.8437C26.75 41.3895 21.3452 39.1395 18.1877 42.2971L1.46895 59.0158C-0.48965 60.9746 -0.48965 64.1504 1.46895 66.109L18.1877 82.8277C21.3283 85.9681 26.75 83.7612 26.75 79.2812V69.25H101.984C104.754 69.25 107 67.0045 107 64.2344V60.8906C107 58.1205 104.754 55.875 101.984 55.875Z" fill="#632D0C"/>
</svg>
