<svg width="110" height="78" viewBox="0 0 110 78" fill="none" xmlns="http://www.w3.org/2000/svg">
<path id="Vector" d="M107.687 12.087C106.422 7.3293 102.695 3.58227 97.9632 2.31066C89.3861 0 54.9927 0 54.9927 0C54.9927 0 20.5995 0 12.0221 2.31066C7.29008 3.58247 3.56317 7.3293 2.29825 12.087C0 20.7106 0 38.7031 0 38.7031C0 38.7031 0 56.6955 2.29825 65.3191C3.56317 70.0768 7.29008 73.6677 12.0221 74.9393C20.5995 77.25 54.9927 77.25 54.9927 77.25C54.9927 77.25 89.3859 77.25 97.9632 74.9393C102.695 73.6677 106.422 70.0768 107.687 65.3191C109.985 56.6955 109.985 38.7031 109.985 38.7031C109.985 38.7031 109.985 20.7106 107.687 12.087ZM43.7441 55.0388V22.3673L72.4901 38.7035L43.7441 55.0388Z" fill="#632D0C"/>
</svg>
